<svg xmlns="http://www.w3.org/2000/svg" width="1040" height="560" viewBox="0 0 1040 560" style="position: absolute; left: 0; top: 0">
<defs><style>
body{margin:0;font-family:Inter,system-ui,sans-serif;color:#0f172a}
.grid{background-color:#ffffff;background-image:radial-gradient(#e2e8f0 1px,transparent 1px);background-size:16px 16px}
.lbl{font-family:Inter,system-ui,sans-serif;font-size:12px;font-weight:500;fill:#475569;paint-order:stroke;stroke:#ffffff;stroke-width:4px;stroke-linejoin:round}
.nm{font-family:Inter,system-ui,sans-serif;font-size:14px;font-weight:600;fill:#0f172a}
</style><marker id="ha" viewBox="0 0 10 10" refX="9" refY="5" markerWidth="7" markerHeight="7" orient="auto"><path d="M0 1 L9 5 L0 9 Z" fill="#334155"/></marker></defs>
<g fill="none" stroke="#334155" stroke-width="1.5" stroke-linecap="round">
<path d="M 117 240 L 238 240" marker-end="url(#ha)"/>
<path d="M 360 229 Q 516 158 670 229" marker-end="url(#ha)"/>
<path d="M 672 251 Q 516 322 362 251" marker-end="url(#ha)"/>
<path d="M 282 216 C 266 150, 334 150, 318 214" marker-end="url(#ha)"/>
<path d="M 722 216 C 706 150, 774 150, 758 214" marker-end="url(#ha)"/>
<path d="M 300 264 L 300 414" marker-end="url(#ha)"/>
</g>
<circle cx="110" cy="240" r="7" fill="#334155"/>
<rect x="240" y="216" width="120" height="48" rx="10" fill="#ffffff" stroke="#334155" stroke-width="1.5"/>
<rect x="672" y="216" width="136" height="48" rx="10" fill="#ffffff" stroke="#334155" stroke-width="1.5"/>
<rect x="248" y="416" width="104" height="48" rx="10" fill="#ffffff" stroke="#334155" stroke-width="1.5"/>
<rect x="252" y="420" width="96" height="40" rx="7" fill="none" stroke="#334155" stroke-width="1"/>
<text class="nm" x="300" y="245" text-anchor="middle">locked</text>
<text class="nm" x="740" y="245" text-anchor="middle">unlocked</text>
<text class="nm" x="300" y="445" text-anchor="middle">off</text>
<text class="lbl" x="516" y="186" text-anchor="middle">coin</text>
<text class="lbl" x="516" y="304" text-anchor="middle">push</text>
<text class="lbl" x="300" y="152" text-anchor="middle">push</text>
<text class="lbl" x="740" y="152" text-anchor="middle">coin</text>
<text class="lbl" x="312" y="344">stop</text>
</svg>