<svg xmlns="http://www.w3.org/2000/svg" width="1040" height="560" viewBox="0 0 1040 560" style="position: absolute; left: 0; top: 0">
<defs><style>
body{margin:0;font-family:Inter,system-ui,sans-serif;color:#0f172a}
.grid{background-color:#ffffff;background-image:radial-gradient(#e2e8f0 1px,transparent 1px);background-size:16px 16px}
.lbl{font-family:Inter,system-ui,sans-serif;font-size:12px;font-weight:500;fill:#475569;paint-order:stroke;stroke:#ffffff;stroke-width:4px;stroke-linejoin:round}
.nm{font-family:Inter,system-ui,sans-serif;font-size:14px;font-weight:600;fill:#0f172a}
.sm{font-family:Inter,system-ui,sans-serif;font-size:13px;font-weight:500;fill:#0f172a}
.eb{font-family:Inter,system-ui,sans-serif;font-size:10px;font-weight:600;letter-spacing:0.08em;fill:#64748b}
.at{font-family:"IBM Plex Mono",monospace;font-size:11px;fill:#64748b}
.rw{font-family:"IBM Plex Mono",monospace;font-size:11px;fill:#0f172a}
.it{font-family:Inter,system-ui,sans-serif;font-size:14px;font-weight:600;font-style:italic;fill:#0f172a}
.mk{font-family:Inter,system-ui,sans-serif;font-size:15px;font-weight:600;fill:#0f172a}
.mk0{font-family:Inter,system-ui,sans-serif;font-size:15px;font-weight:500;fill:#94a3b8}
</style><marker id="hub" viewBox="0 0 10 10" refX="9" refY="5" markerWidth="7" markerHeight="7" orient="auto"><path d="M0 1 L9 5 L0 9 Z" fill="#334155"/></marker><marker id="iub" viewBox="0 0 10 10" refX="9" refY="5" markerWidth="6" markerHeight="6" orient="auto"><circle cx="5" cy="5" r="4" fill="#ffffff" stroke="#334155" stroke-width="1.5"/></marker><marker id="oub" viewBox="0 0 10 10" refX="9" refY="5" markerWidth="8" markerHeight="8" orient="auto"><path d="M0 1 L9 5 L0 9" fill="none" stroke="#334155" stroke-width="1.3" stroke-linejoin="round"/></marker></defs>
<g fill="none" stroke="#334155" stroke-width="1.2" stroke-linecap="round" stroke-linejoin="round">
<path d="M 254 126 L 439 126"/>
<path d="M 410 365 V 290 H 630 V 365"/>
<path d="M 520 290 V 169"/>
<path d="M 810 126 L 601 126" marker-end="url(#oub)"/>
</g>
<rect x="70" y="100" width="160" height="52" rx="8" fill="#ffffff" stroke="#cbd5e1" stroke-width="1"/>
<rect x="80" y="110" width="18" height="18" rx="4" fill="#fee2e2"/>
<text class="eb" x="89" y="123" text-anchor="middle" style="fill:#b91c1c">C</text>
<text class="nm" x="106" y="124">Library</text>
<text class="at" x="106" y="142" text-anchor="start">1 attr · 1 op</text>
<rect x="440" y="100" width="160" height="52" rx="8" fill="#ffffff" stroke="#cbd5e1" stroke-width="1"/>
<rect x="450" y="110" width="18" height="18" rx="4" fill="#fee2e2"/>
<text class="eb" x="459" y="123" text-anchor="middle" style="fill:#b91c1c">C</text>
<text class="it" x="476" y="124">Item</text>
<text class="at" x="476" y="142" text-anchor="start">abstract · 2 attr · 1 op</text>
<rect x="810" y="100" width="160" height="52" rx="8" fill="#ffffff" stroke="#cbd5e1" stroke-width="1"/>
<rect x="820" y="110" width="18" height="18" rx="4" fill="#fee2e2"/>
<text class="eb" x="829" y="123" text-anchor="middle" style="fill:#b91c1c">C</text>
<text class="nm" x="846" y="124">Member</text>
<text class="at" x="846" y="142" text-anchor="start">1 attr · 1 op</text>
<rect x="330" y="365" width="160" height="52" rx="8" fill="#ffffff" stroke="#cbd5e1" stroke-width="1"/>
<rect x="340" y="375" width="18" height="18" rx="4" fill="#fee2e2"/>
<text class="eb" x="349" y="388" text-anchor="middle" style="fill:#b91c1c">C</text>
<text class="nm" x="366" y="389">Book</text>
<text class="at" x="366" y="407" text-anchor="start">1 attr</text>
<rect x="550" y="365" width="160" height="52" rx="8" fill="#ffffff" stroke="#cbd5e1" stroke-width="1"/>
<rect x="560" y="375" width="18" height="18" rx="4" fill="#fee2e2"/>
<text class="eb" x="569" y="388" text-anchor="middle" style="fill:#b91c1c">C</text>
<text class="nm" x="586" y="389">DVD</text>
<text class="at" x="586" y="407" text-anchor="start">1 attr</text>
<polygon points="230,126 242,121 254,126 242,131" fill="#334155" stroke="#334155" stroke-width="1.2" stroke-linejoin="round"/>
<polygon points="520,153 512,169 528,169" fill="#ffffff" stroke="#334155" stroke-width="1.2" stroke-linejoin="round"/>
<text class="lbl" x="346" y="116" text-anchor="middle">items</text>
<text class="lbl" x="705" y="116" text-anchor="middle">borrows</text>
</svg>