<?xml version="1.0" encoding="iso-8859-1"?>
<!-- Uploaded to: SVG Repo, www.svgrepo.com, Generator: SVG Repo Mixer Tools -->
<svg height="800px" width="800px" version="1.1" id="Layer_1" xmlns="http://www.w3.org/2000/svg" xmlns:xlink="http://www.w3.org/1999/xlink" 
	 viewBox="0 0 512 512" xml:space="preserve">
<g transform="translate(1 1)">
	<path style="fill:#CCCCCC;" d="M229.4,255c0,61.44-49.493,110.933-110.933,110.933S7.533,316.44,7.533,255
		s49.493-110.933,110.933-110.933S229.4,193.56,229.4,255"/>
	<path style="fill:#E2E3E5;" d="M203.8,255c0,61.44-43.52,110.933-98.133,110.933S7.533,316.44,7.533,255
		s43.52-110.933,98.133-110.933S203.8,193.56,203.8,255"/>
	<path style="fill:#FFFFFF;" d="M118.467,365.933c2.56,0,4.267,0,6.827,0c-51.2-4.267-92.16-52.053-92.16-110.933
		s40.96-106.667,92.16-110.933c-2.56,0-4.267,0-6.827,0C57.027,144.067,7.533,193.56,7.533,255S57.027,365.933,118.467,365.933"/>
	<path style="fill:#E0E0E0;" d="M451.267,203.8H216.6c7.68,15.36,12.8,32.427,12.8,51.2s-4.267,35.84-12.8,51.2h234.667
		c28.16,0,51.2-23.04,51.2-51.2S479.427,203.8,451.267,203.8"/>
	<path style="fill:#F0F0F0;" d="M425.667,203.8H216.6c7.68,15.36,12.8,32.427,12.8,51.2s-4.267,35.84-12.8,51.2h209.067
		c28.16,0,51.2-23.04,51.2-51.2S453.827,203.8,425.667,203.8"/>
	<g>
		<path style="fill:#B6B6B6;" d="M118.467,374.467C52.76,374.467-1,320.707-1,255s53.76-119.467,119.467-119.467
			S237.933,189.293,237.933,255S184.173,374.467,118.467,374.467z M118.467,152.6c-56.32,0-102.4,46.08-102.4,102.4
			s46.08,102.4,102.4,102.4s102.4-46.08,102.4-102.4S174.787,152.6,118.467,152.6z"/>
		<path style="fill:#B6B6B6;" d="M451.267,314.733H216.6c-2.56,0-5.973-1.707-7.68-4.267s-1.707-5.973,0-8.533
			c7.68-14.507,11.947-30.72,11.947-46.933s-4.267-32.427-11.947-46.933c-1.707-2.56-0.853-5.973,0-8.533
			c2.56-2.56,5.12-4.267,7.68-4.267h234.667C484.547,195.267,511,221.72,511,255S484.547,314.733,451.267,314.733z M230.253,297.667
			h221.013c23.893,0,42.667-18.773,42.667-42.667s-18.773-42.667-42.667-42.667H230.253c5.12,13.653,7.68,28.16,7.68,42.667
			S235.373,284.013,230.253,297.667z"/>
	</g>
</g>
</svg>