<?xml version="1.0" encoding="iso-8859-1"?>
<!-- Uploaded to: SVG Repo, www.svgrepo.com, Generator: SVG Repo Mixer Tools -->
<svg height="800px" width="800px" version="1.1" id="Layer_1" xmlns="http://www.w3.org/2000/svg" xmlns:xlink="http://www.w3.org/1999/xlink" 
	 viewBox="0 0 512 512" xml:space="preserve">
<g transform="translate(1 1)">
	<path style="fill:#CCCCCC;" d="M280.6,255c0-61.44,49.493-110.933,110.933-110.933S502.467,193.56,502.467,255
		s-49.493,110.933-110.933,110.933S280.6,316.44,280.6,255"/>
	<path style="fill:#E2E3E5;" d="M306.2,255c0-61.44,43.52-110.933,98.133-110.933S502.467,193.56,502.467,255
		s-43.52,110.933-98.133,110.933S306.2,316.44,306.2,255"/>
	<path style="fill:#FFFFFF;" d="M391.533,144.067c-2.56,0-4.267,0-6.827,0c51.2,3.413,92.16,51.2,92.16,110.933
		s-40.96,106.667-92.16,110.933c2.56,0,4.267,0,6.827,0c61.44,0,110.933-49.493,110.933-110.933S452.973,144.067,391.533,144.067"/>
	<path style="fill:#E0E0E0;" d="M58.733,306.2H293.4c-7.68-15.36-12.8-32.427-12.8-51.2s4.267-35.84,12.8-51.2H58.733
		c-28.16,0-51.2,23.04-51.2,51.2S30.573,306.2,58.733,306.2"/>
	<path style="fill:#F0F0F0;" d="M84.333,306.2H293.4c-7.68-15.36-12.8-32.427-12.8-51.2s4.267-35.84,12.8-51.2H84.333
		c-28.16,0-51.2,23.04-51.2,51.2S56.173,306.2,84.333,306.2"/>
	<g>
		<path style="fill:#B6B6B6;" d="M391.533,374.467c-65.707,0-119.467-53.76-119.467-119.467s53.76-119.467,119.467-119.467
			S511,189.293,511,255S457.24,374.467,391.533,374.467z M391.533,152.6c-56.32,0-102.4,46.08-102.4,102.4s46.08,102.4,102.4,102.4
			s102.4-46.08,102.4-102.4S447.853,152.6,391.533,152.6z"/>
		<path style="fill:#B6B6B6;" d="M293.4,314.733H58.733C25.453,314.733-1,288.28-1,255s26.453-59.733,59.733-59.733H293.4
			c2.56,0,5.973,1.707,7.68,4.267c1.707,2.56,1.707,5.973,0,8.533c-7.68,14.507-11.947,30.72-11.947,46.933
			s4.267,32.427,11.947,46.933c1.707,2.56,0.853,5.973,0,8.533C298.52,313.027,295.96,314.733,293.4,314.733z M58.733,212.333
			c-23.893,0-42.667,18.773-42.667,42.667s18.773,42.667,42.667,42.667h221.013c-5.12-13.653-7.68-28.16-7.68-42.667
			s2.56-29.013,7.68-42.667H58.733z"/>
	</g>
</g>
</svg>